<?xml version="1.0" encoding="utf-8"?>
<!-- Generator: Adobe Illustrator 17.0.0, SVG Export Plug-In . SVG Version: 6.00 Build 0)  -->
<!DOCTYPE svg PUBLIC "-//W3C//DTD SVG 1.1//EN" "http://www.w3.org/Graphics/SVG/1.1/DTD/svg11.dtd">
<svg version="1.1" id="Layer_1" xmlns="http://www.w3.org/2000/svg" xmlns:xlink="http://www.w3.org/1999/xlink" x="0px" y="0px"
	 width="160px" height="50px" viewBox="0 0 160 50" enable-background="new 0 0 160 50" xml:space="preserve">
<g>
	<path fill="#273140" d="M4.759,14.401c0.06-0.63,0.36-0.9,0.99-0.9h9.509c0.36,0,0.51,0.21,0.51,0.66c0,0.69,0,1.621-0.75,1.621
		h-7.77l-0.72,6.84h7.53c0.36,0,0.51,0.209,0.51,0.659c0,0.69,0,1.62-0.75,1.62H6.29l-0.93,9C5.3,34.321,4.85,34.56,4.1,34.56H3.86
		c-0.9,0-1.14-0.239-1.14-0.659L4.759,14.401z"/>
	<path fill="#273140" d="M25.609,18.631c3.93,0,6.03,2.279,6.03,6.51c0,6.209-2.94,9.539-7.74,9.539c-4.08,0-6.209-2.25-6.209-6.449
		C17.689,23.25,19.969,18.631,25.609,18.631z M29.029,25.2c0-2.999-1.2-4.409-3.75-4.409c-3.3,0-5.01,2.85-5.01,7.35
		c0,2.97,1.23,4.379,3.78,4.379C27.259,32.52,29.029,29.971,29.029,25.2z"/>
	<path fill="#273140" d="M46.969,31.29c0,1.229,0.6,1.229,1.08,1.229c0.359,0,0.63-0.149,0.81-0.149c0.09,0,0.18,0.03,0.18,0.21
		c0,0.029,0,0.45-0.119,1.109c-0.15,0.75-1.261,0.99-1.801,0.99c-1.71,0-2.699-0.899-2.699-2.939v-0.301
		c-1.591,2.371-3.511,3.24-5.34,3.24c-2.91,0-3.96-1.68-3.96-3.899c0-0.39,1.14-11.37,1.14-11.37c0.06-0.479,0.48-0.66,1.26-0.66
		h0.12c0.84,0,1.14,0.211,1.14,0.66c0,0-1.08,10.35-1.08,10.77c0,1.53,0.75,2.311,2.28,2.311c1.32,0,3.51-0.99,4.8-5.1
		c0.391-3.78,0.84-7.98,0.84-7.98c0.061-0.479,0.48-0.66,1.26-0.66H47c0.84,0,1.141,0.211,1.141,0.66
		C48.139,19.41,46.969,30.391,46.969,31.29z"/>
	<path fill="#273140" d="M64.459,32.52c0.359,0,0.63-0.149,0.81-0.149c0.09,0,0.18,0.03,0.18,0.21c0,0.029,0,0.45-0.12,1.109
		c-0.149,0.75-1.26,0.99-1.8,0.99c-1.71,0-2.699-0.899-2.699-2.939c0-0.99,0.84-8.04,0.84-8.609c0-1.53-0.75-2.311-2.28-2.311
		c-1.32,0-3.479,0.96-4.77,4.83c-0.391,3.869-0.87,8.25-0.87,8.25c-0.06,0.42-0.48,0.659-1.26,0.659h-0.12
		c-0.811,0-1.14-0.27-1.14-0.63c0,0,1.319-11.729,1.319-13.139c0-0.721-0.029-0.84-0.029-1.021c0-0.659,1.47-0.69,1.68-0.69
		s0.779,0.09,0.779,2.25c0,0,0,0.15-0.029,0.33c1.62-2.22,3.51-3.029,5.34-3.029c2.909,0,3.96,1.68,3.96,3.899
		c0,0.511-0.87,8.13-0.87,8.76C63.379,32.52,63.979,32.52,64.459,32.52z"/>
	<path fill="#273140" d="M81.738,11.941h0.12c0.84,0,1.14,0.21,1.14,0.66c0,0-1.92,17.79-1.92,18.689
		c0,1.229,0.601,1.229,1.08,1.229c0.36,0,0.63-0.149,0.811-0.149c0.09,0,0.18,0.03,0.18,0.21c0,0.029,0,0.45-0.12,1.109
		c-0.149,0.75-1.26,0.99-1.8,0.99c-1.71,0-2.7-0.899-2.7-2.939v-0.301c-1.26,2.341-3.029,3.24-4.829,3.24
		c-2.19,0-5.641-1.26-5.641-6.479c0-5.579,2.971-9.569,7.53-9.569c2.1,0,3.33,0.72,4.08,1.35c0.449-4.229,0.81-7.379,0.81-7.379
		C80.538,12.121,80.959,11.941,81.738,11.941z M79.459,21.961c-0.601-0.48-1.681-1.141-3.51-1.141c-4.141,0-5.25,3.6-5.25,7.2
		c0,3.419,1.319,4.47,3.569,4.47c1.351,0,3.36-1.08,4.62-5.01L79.459,21.961z"/>
	<path fill="#273140" d="M93.438,32.49c-0.869,1.29-2.34,2.279-4.079,2.279c-2.91,0-4.86-2.279-4.86-6.51
		c0-5.76,2.73-9.659,6.66-9.659c1.71,0,3,0.99,3.63,1.59c0.33-1.079,0.42-1.38,1.95-1.409h0.359c1.2,0,1.74,0.27,1.74,0.75
		c0,0.119-1.11,10.229-1.11,10.738c0,0.69,0.271,0.961,0.9,0.961c0.42,0,0.75-0.18,0.87-0.18c0.18,0,0.239,0.06,0.239,0.329
		c0,0.06-0.029,0.75-0.21,1.8c-0.18,1.11-1.59,1.561-2.64,1.561C95.058,34.74,93.857,34.08,93.438,32.49z M93.378,29.4
		c0.479-5.34,0.36-4.41,0.78-6.48c-0.511-0.449-1.141-0.81-1.98-0.81c-2.01,0-3.18,2.04-3.18,5.88c0,2.07,0.66,3.15,2.04,3.15
		C91.998,31.141,92.778,30.33,93.378,29.4z"/>
	<path fill="#273140" d="M106.638,20.701c0.84-1.201,2.25-2.131,3.93-2.131c3.18,0,5.31,2.28,5.31,6.51
		c0,5.76-2.909,9.66-7.109,9.66c-1.41,0-2.49-0.631-3.21-1.2c-0.39,3.81-0.66,6.18-0.66,6.18c-0.06,0.63-0.72,0.96-1.89,0.96h-0.84
		c-1.2,0-1.71-0.45-1.71-0.93l1.68-15.959c0.09-0.871,0.12-1.621,0.12-2.131c0-0.72-0.06-1.229-0.06-1.68
		c0-0.66,1.529-1.08,3.479-1.08C106.428,18.9,106.578,19.74,106.638,20.701z M105.857,30.54c0.48,0.39,1.11,0.69,1.891,0.69
		c2.279,0,3.63-2.04,3.63-5.88c0-2.07-0.841-3.149-2.49-3.149c-1.021,0-1.8,0.84-2.4,1.829
		C106.338,25.771,106.098,28.11,105.857,30.54z"/>
	<path fill="#273140" d="M123.828,20.701c0.84-1.201,2.25-2.131,3.93-2.131c3.18,0,5.31,2.28,5.31,6.51
		c0,5.76-2.909,9.66-7.109,9.66c-1.41,0-2.49-0.631-3.21-1.2c-0.39,3.81-0.66,6.18-0.66,6.18c-0.06,0.63-0.72,0.96-1.89,0.96h-0.84
		c-1.2,0-1.71-0.45-1.71-0.93l1.68-15.959c0.09-0.871,0.12-1.621,0.12-2.131c0-0.72-0.06-1.229-0.06-1.68
		c0-0.66,1.529-1.08,3.479-1.08C123.618,18.9,123.769,19.74,123.828,20.701z M123.048,30.54c0.48,0.39,1.11,0.69,1.891,0.69
		c2.279,0,3.63-2.04,3.63-5.88c0-2.07-0.841-3.149-2.49-3.149c-1.021,0-1.8,0.84-2.4,1.829
		C123.528,25.771,123.288,28.11,123.048,30.54z"/>
	<path fill="#273140" d="M135.288,30.84c0.06-0.63,0.689-0.959,1.92-0.959h0.96c1.29,0,1.68,0.359,1.68,0.959l-0.271,2.76
		c-0.06,0.631-0.689,0.96-1.92,0.96h-0.96c-1.35,0-1.68-0.3-1.68-0.96L135.288,30.84z"/>
</g>
</svg>
